<svg xmlns="http://www.w3.org/2000/svg" viewBox="0 0 1000 1000" fill="#F7931A"><path d="M500.496 995.003c275.935 0 494.507-224.506 494.507-495.496C995.003 226.54 773.464 5 500.496 5 223.572 5 5 229.506 5 499.507c0 276.924 224.506 495.496 495.496 495.496zM249.286 627.09l14.836-59.34 415.386 110.769-14.835 57.363zm39.561-150.33 14.835-57.363 416.375 108.792-16.813 59.34zm40.55-154.286 14.835-57.363 415.386 109.78-14.835 57.363zM375.88 866.43l25.715-98.901 59.34 15.824-25.714 98.902zm171.1-641.87 25.714-99.89 59.341 16.813-27.692 98.901z"></path></svg>