<svg xmlns="http://www.w3.org/2000/svg" viewBox="0 0 1000 1000" fill="#269B56"><path d="M500.496 5C223.572 5 5 229.506 5 500.002c0 276.43 224.506 495.001 495.002 495.001 276.43 0 495.001-224.506 495.001-495.001C995.003 226.539 773.464 5 500.496 5zM297.183 628.253l77.708-14.416c16.418 75.066 56.67 112.154 119.671 112.154 59.34 0 102.858-46.483 102.858-105.824 0-66.264-58.352-95.935-120.66-124.616-69.231-31.648-140.44-66.264-140.44-159.231 0-72.198 49.45-129.561 135.495-152.308V114.78h69.23v69.23c59.935 7.913 98.408 38.177 128.968 97.814l-73.88 42.132c-21.757-40.055-53.9-62.802-90.692-62.802-46.483 0-82.088 32.637-82.088 75.165 0 44.505 32.638 63.297 90.99 90.99 30.659 14.834 57.362 29.67 81.099 42.527 59.34 31.648 87.033 81.099 87.033 150.33 0 87.033-60.33 167.143-141.43 181.979v75.165h-69.23v-69.23C362.726 785.43 320 743.3 297.155 628.277zm296.28-302.812c0-.297.297-.396.693-.396z"></path></svg>